<?xml version="1.0" encoding="UTF-8" standalone="no"?>
<!-- Created with Inkscape (http://www.inkscape.org/) -->

<svg
   xmlns:dc="http://purl.org/dc/elements/1.1/"
   xmlns:cc="http://creativecommons.org/ns#"
   xmlns:rdf="http://www.w3.org/1999/02/22-rdf-syntax-ns#"
   xmlns:svg="http://www.w3.org/2000/svg"
   xmlns="http://www.w3.org/2000/svg"
   xmlns:sodipodi="http://sodipodi.sourceforge.net/DTD/sodipodi-0.dtd"
   xmlns:inkscape="http://www.inkscape.org/namespaces/inkscape"
   id="svg2"
   sodipodi:docname="number-0.svg"
   inkscape:export-filename="number-0.png"
   viewBox="0 0 17.176487 25.075432"
   inkscape:export-xdpi="90"
   version="1.1"
   inkscape:export-ydpi="90"
   inkscape:version="0.92.2 (30a58d1, 2017-08-07)"
   width="17.176487"
   height="25.075432">
  <defs
     id="defs4">
    <linearGradient
       id="linearGradient5745"
       y2="920.35999"
       gradientUnits="userSpaceOnUse"
       x2="255"
       y1="972.35999"
       x1="256"
       inkscape:collect="always">
      <stop
         id="stop5741"
         style="stop-color:#00ff00"
         offset="0" />
      <stop
         id="stop5743"
         style="stop-color:#00ff00;stop-opacity:0"
         offset="1" />
    </linearGradient>
    <filter
       id="filter5777"
       inkscape:collect="always">
      <feGaussianBlur
         id="feGaussianBlur5779"
         stdDeviation="0.76491902"
         inkscape:collect="always" />
    </filter>
    <linearGradient
       id="linearGradient3089"
       y2="212"
       gradientUnits="userSpaceOnUse"
       x2="227"
       gradientTransform="translate(0,602.36)"
       y1="57"
       x1="342"
       inkscape:collect="always">
      <stop
         id="stop5771"
         style="stop-color:#00ff00"
         offset="0" />
      <stop
         id="stop5773"
         style="stop-color:#00ff00;stop-opacity:0"
         offset="1" />
    </linearGradient>
    <linearGradient
       id="linearGradient3093"
       y2="728.85999"
       gradientUnits="userSpaceOnUse"
       x2="231"
       y1="627.35999"
       x1="231"
       inkscape:collect="always">
      <stop
         id="stop5733"
         style="stop-color:#ffffff"
         offset="0" />
      <stop
         id="stop5735"
         style="stop-color:#ffffff;stop-opacity:0"
         offset="1" />
    </linearGradient>
    <linearGradient
       id="linearGradient3096"
       y2="953.35999"
       gradientUnits="userSpaceOnUse"
       x2="243"
       y1="655.35999"
       x1="243"
       inkscape:collect="always">
      <stop
         id="stop5716"
         style="stop-color:#00d400"
         offset="0" />
      <stop
         id="stop5718"
         style="stop-color:#00aa00"
         offset="1" />
    </linearGradient>
  </defs>
  <sodipodi:namedview
     id="base"
     bordercolor="#666666"
     inkscape:pageshadow="2"
     inkscape:window-y="24"
     pagecolor="#ffffff"
     inkscape:window-height="744"
     inkscape:window-maximized="1"
     inkscape:zoom="1"
     inkscape:window-x="65"
     showgrid="false"
     borderopacity="1.0"
     inkscape:current-layer="layer1"
     inkscape:cx="271.95902"
     inkscape:cy="221.67315"
     inkscape:window-width="1301"
     inkscape:pageopacity="0.0"
     inkscape:document-units="px"
     fit-margin-top="0"
     fit-margin-left="0"
     fit-margin-right="0"
     fit-margin-bottom="0" />
  <g
     id="layer1"
     inkscape:label="Layer 1"
     inkscape:groupmode="layer"
     transform="translate(-79.965827,-968.717)">
    <g
       id="g3868"
       transform="matrix(0.05629144,0,0,0.06596747,75.556261,928.26938)">
      <path
         id="path5705"
         style="color:#000000;fill:#000000;stroke:#000000;stroke-width:7.91569996;stroke-linecap:square;stroke-linejoin:round"
         inkscape:connector-curvature="0"
         d="m 220.82,617.17 c -57.557,1.2032 -103.99,45.01 -123.08,95.181 -0.02478,0.0615 -0.03811,0.12695 -0.06285,0.18848 -0.0082,0.0217 -0.02319,0.0411 -0.03141,0.0628 -33.08,82.395 -12.125,185.3 58.208,242.66 a 12.941,12.941 0 0 0 0.0628,0.0628 c 39.984,32.082 99.725,40.581 144.84,11.466 v 0.0314 c 0.11005,-0.0672 0.20434,-0.15244 0.31411,-0.2199 54.103,-33.232 78.756,-97.463 78.438,-157.06 -1.1e-4,-0.0208 1.2e-4,-0.042 0,-0.0628 1.6e-4,-0.0314 -1.5e-4,-0.0629 0,-0.0942 0.32657,-69.184 -31.875,-142.54 -95.903,-177.33 a 12.941,12.941 0 0 0 -0.21989,-0.12566 c -18.947,-9.8429 -40.442,-15.494 -62.386,-14.764 -0.063,0.002 -0.12547,-0.002 -0.18848,0 z m 3.1098,70.082 a 12.941,12.941 0 0 0 0.21989,0 c 34.63,-0.89686 66.084,27.254 79.506,59.841 a 12.941,12.941 0 0 0 0.12564,0.25133 c 20.563,47.046 13.5,109.22 -25.224,143.31 a 12.941,12.941 0 0 0 -0.0314,0.0314 c -24.886,22.057 -68.318,19.704 -91.694,-3.958 a 12.941,12.941 0 0 0 -0.53407,-0.53397 c -45.16,-40.8 -53.05,-118.98 -17.36,-168.15 0.0314,-0.0417 0.0628,-0.0838 0.0942,-0.12564 0.009,-0.0118 0.0228,-0.0197 0.0314,-0.0314 13.354,-17.659 33.803,-30.427 54.847,-30.627 z" />
      <path
         id="path5708"
         style="color:#000000;fill:#ffffff"
         inkscape:connector-curvature="0"
         d="m 220.12,618.12 c -42.911,0.49302 -82.031,27.314 -104.81,62.312 -30.901,48.255 -38.436,109.97 -24.445,165.16 11.671,46.001 38.941,89.105 79.226,114.87 38.193,23.607 90.232,26.804 128.56,1.5938 47.284,-28.819 72.821,-83.96 76.531,-137.94 4.441,-60.429 -15.195,-123.92 -59.375,-166.28 -25.46,-24.65 -59.71,-41.02 -95.68,-39.71 z m 4.6875,65.688 c 31.487,0.25561 58.499,22.487 73.406,48.688 24.093,43.246 24.123,101.14 -5.5083,141.86 -11.129,15.696 -27.804,27.882 -47.242,30.264 -24.054,3.6644 -49.488,-5.1137 -65.438,-23.375 -40.105,-40.783 -47.611,-109.82 -18.156,-158.78 13.12,-21.749 36.779,-38.978 62.938,-38.656 z" />
      <path
         id="path5712"
         d="m 222.02,618.13 c -43.386,0.49846 -82.939,27.616 -105.97,63.002 -31.243,48.789 -38.862,111.19 -24.715,166.98 11.8,46.509 39.372,90.091 80.103,116.14 38.615,23.868 91.23,27.101 129.98,1.6114 47.807,-29.137 73.626,-84.888 77.378,-139.46 4.4901,-61.097 -15.363,-125.29 -60.032,-168.12 -25.755,-24.933 -60.385,-41.486 -96.746,-40.158 z m 4.7394,66.414 c 31.835,0.25843 59.146,22.736 74.218,49.226 24.359,43.724 24.39,102.26 -5.5693,143.43 -11.252,15.87 -28.112,28.19 -47.764,30.599 -24.32,3.705 -50.035,-5.1703 -66.161,-23.634 -40.549,-41.234 -48.138,-111.04 -18.357,-160.54 13.265,-21.99 37.186,-39.409 63.634,-39.084 z"
         style="color:#000000;fill:url(#linearGradient3096)"
         inkscape:connector-curvature="0" />
      <path
         id="path5729"
         style="color:#000000;fill:url(#linearGradient3093)"
         inkscape:connector-curvature="0"
         d="m 225.38,617.05 c -1.1389,0.007 -2.2638,0.0208 -3.4062,0.0625 -43.623,0.50118 -83.403,27.796 -106.56,63.375 -9.9756,15.578 -17.536,32.531 -22.781,50.219 23.632,-28.793 57.821,-52.383 99.062,-65.469 48.698,-15.452 97.833,-13.264 137.59,2.75 -3.2001,-3.609 -6.5277,-7.1095 -10.031,-10.469 -25.087,-24.286 -58.57,-40.683 -93.875,-40.469 z" />
      <path
         id="path5722"
         style="color:#000000;fill:url(#linearGradient5745);filter:url(#filter5777)"
         inkscape:connector-curvature="0"
         d="m 361.34,898.08 c -21.784,20.078 -49.318,36.344 -81.031,46.406 -49.029,15.557 -98.504,13.249 -138.41,-3.0625 8.8077,8.9276 18.548,16.913 29.188,23.719 38.827,23.998 91.72,27.254 130.69,1.625 26.66,-16.249 46.517,-40.743 59.562,-68.688 z" />
      <path
         id="path5751"
         style="color:#000000;fill:url(#linearGradient3089)"
         inkscape:connector-curvature="0"
         d="m 248.97,680.49 c -21.327,0.14929 -44.513,3.581 -68.219,10.625 -35.35,10.504 -66.25,27.401 -89.375,47.219 -1.9348,7.5034 -3.4792,15.1 -4.5938,22.781 18.442,-11.431 39.747,-21.1 62.969,-28 3.1991,-0.95059 6.3858,-1.8368 9.5625,-2.6562 1.1949,-2.3184 2.465,-4.6039 3.8125,-6.8438 13.265,-21.99 37.177,-39.388 63.625,-39.062 17.839,0.14481 34.266,7.2613 47.906,18.156 39.229,6.2765 67.861,25.58 74.469,54.812 1.4205,6.2843 1.7243,12.726 1.0625,19.25 5.233,-13.263 6.799,-26.591 3.9375,-39.25 -8.2324,-36.421 -50.655,-57.413 -105.16,-57.031 z m 36.812,32.562 c 5.8952,6.339 11.009,13.375 15.188,20.719 3.693,6.6289 6.8201,13.615 9.375,20.812 6.2674,7.225 10.663,15.567 12.781,24.938 3.2425,14.345 0.84111,29.538 -6.1875,44.531 -0.1197,0.76168 -0.24224,1.522 -0.375,2.2812 16.051,-21.224 23.282,-43.934 18.562,-64.812 -5.0957,-22.544 -23.292,-39.158 -49.344,-48.469 z" />
    </g>
  </g>
  <metadata
     id="metadata29">
    <rdf:RDF>
      <cc:Work>
        <dc:format>image/svg+xml</dc:format>
        <dc:type
           rdf:resource="http://purl.org/dc/dcmitype/StillImage" />
        <cc:license
           rdf:resource="http://creativecommons.org/publicdomain/zero/1.0/" />
        <dc:publisher>
          <cc:Agent
             rdf:about="http://openclipart.org/">
            <dc:title>Openclipart</dc:title>
          </cc:Agent>
        </dc:publisher>
        <dc:title></dc:title>
      </cc:Work>
      <cc:License
         rdf:about="http://creativecommons.org/publicdomain/zero/1.0/">
        <cc:permits
           rdf:resource="http://creativecommons.org/ns#Reproduction" />
        <cc:permits
           rdf:resource="http://creativecommons.org/ns#Distribution" />
        <cc:permits
           rdf:resource="http://creativecommons.org/ns#DerivativeWorks" />
      </cc:License>
    </rdf:RDF>
  </metadata>
</svg>
