<?xml version="1.0" encoding="UTF-8" standalone="no"?>
<!-- Created with Inkscape (http://www.inkscape.org/) -->

<svg
   xmlns:dc="http://purl.org/dc/elements/1.1/"
   xmlns:cc="http://creativecommons.org/ns#"
   xmlns:rdf="http://www.w3.org/1999/02/22-rdf-syntax-ns#"
   xmlns:svg="http://www.w3.org/2000/svg"
   xmlns="http://www.w3.org/2000/svg"
   xmlns:sodipodi="http://sodipodi.sourceforge.net/DTD/sodipodi-0.dtd"
   xmlns:inkscape="http://www.inkscape.org/namespaces/inkscape"
   id="svg2"
   sodipodi:docname="number-6.svg"
   inkscape:export-filename="number-6.png"
   viewBox="0 0 18.62686 25.031868"
   inkscape:export-xdpi="90"
   version="1.1"
   inkscape:export-ydpi="90"
   inkscape:version="0.92.2 (30a58d1, 2017-08-07)"
   width="18.62686"
   height="25.031868">
  <defs
     id="defs4">
    <filter
       id="filter4020"
       inkscape:collect="always">
      <feGaussianBlur
         id="feGaussianBlur4022"
         stdDeviation="1.9730453"
         inkscape:collect="always" />
    </filter>
    <linearGradient
       id="linearGradient4045"
       y2="1042.2"
       gradientUnits="userSpaceOnUse"
       x2="184.27"
       y1="775.59003"
       x1="218.63"
       inkscape:collect="always">
      <stop
         id="stop3984"
         style="stop-color:#00ff00"
         offset="0" />
      <stop
         id="stop3986"
         style="stop-color:#00d500"
         offset="1" />
    </linearGradient>
    <linearGradient
       id="linearGradient4047"
       y2="732.63"
       gradientUnits="userSpaceOnUse"
       x2="217"
       y1="641.35999"
       x1="217"
       inkscape:collect="always">
      <stop
         id="stop4003"
         style="stop-color:#ffffff"
         offset="0" />
      <stop
         id="stop4005"
         style="stop-color:#ffffff;stop-opacity:0"
         offset="1" />
    </linearGradient>
    <linearGradient
       id="linearGradient4049"
       y2="301"
       gradientUnits="userSpaceOnUse"
       x2="254"
       y1="353"
       x1="253"
       inkscape:collect="always">
      <stop
         id="stop4014"
         style="stop-color:#00ff00"
         offset="0" />
      <stop
         id="stop4016"
         style="stop-color:#00ff00;stop-opacity:0"
         offset="1" />
    </linearGradient>
    <linearGradient
       id="linearGradient4051"
       y2="281"
       gradientUnits="userSpaceOnUse"
       x2="264"
       y1="151"
       x1="268"
       inkscape:collect="always">
      <stop
         id="stop4031"
         style="stop-color:#66ff00"
         offset="0" />
      <stop
         id="stop4033"
         style="stop-color:#ddff55"
         offset="1" />
    </linearGradient>
  </defs>
  <sodipodi:namedview
     id="base"
     bordercolor="#666666"
     inkscape:pageshadow="2"
     inkscape:window-y="24"
     pagecolor="#ffffff"
     inkscape:window-height="744"
     inkscape:window-maximized="1"
     inkscape:zoom="0.5"
     inkscape:window-x="65"
     showgrid="false"
     borderopacity="1.0"
     inkscape:current-layer="layer1"
     inkscape:cx="85.631813"
     inkscape:cy="129.06826"
     inkscape:window-width="1301"
     inkscape:pageopacity="0.0"
     inkscape:document-units="px"
     fit-margin-top="0"
     fit-margin-left="0"
     fit-margin-right="0"
     fit-margin-bottom="0" />
  <g
     id="layer1"
     inkscape:label="Layer 1"
     inkscape:groupmode="layer"
     transform="translate(-83.451517,-956.15567)">
    <g
       id="g4037"
       transform="matrix(0.06416735,0,0,0.07311926,78.141145,910.14924)">
      <path
         id="path3968"
         style="fill:#000000;stroke:#000000;stroke-width:10.52299976"
         sodipodi:type="inkscape:offset"
         d="m 214.3125,755.57812 c -40.0932,3e-4 -72.15769,16.41614 -91.74414,47.78321 C 103.53529,833.8425 94.203104,870.47569 94.203125,912.5 c -2.1e-5,43.00353 9.890545,78.30643 30.595705,104.6387 20.66792,26.285 49.84439,40.0332 84.35742,40.0332 30.34967,0 56.65295,-10.3842 76.5332,-30.7012 19.66044,-20.0927 29.91968,-45.02233 29.91993,-72.7832 -2.5e-4,-26.78674 -9.70815,-50.7728 -28.32422,-69.96875 -18.71431,-19.29645 -42.94841,-29.35918 -70.41016,-29.35937 -18.35711,2e-4 -35.99466,5.10604 -52.2168,14.95507 a 10.235613,10.235613 0 0 0 -0.002,0 c -5.80199,3.52268 -11.10101,7.75368 -15.95703,12.56055 3.06061,-21.97759 8.54151,-39.18258 16.0664,-51.33984 11.39889,-18.41611 26.24388,-26.58192 48.76563,-26.58204 24.18919,2.2e-4 38.06615,9.93001 47.43164,34.5879 a 10.235613,10.235613 0 0 0 12.25977,6.24023 l 30.5,-8.3125 a 10.235613,10.235613 0 0 0 6.93359,-13.35547 C 294.91229,779.57004 260.67611,755.57843 214.3125,755.57812 Z m -2.78125,146.59376 c 15.28934,1.2e-4 26.88437,4.88924 37.07617,15.53124 10.29638,10.75174 15.06429,22.67735 15.06446,37.76563 -1.7e-4,15.33243 -4.88523,27.42988 -15.42969,38.31641 -10.34785,10.68334 -22.78755,15.79294 -39.67969,15.79294 -16.88253,0 -29.23103,-5.1137 -39.51758,-15.84763 -10.63602,-11.09835 -15.3731,-22.58018 -15.37304,-36.26172 -6e-5,-14.90734 5.31778,-27.07658 17.26367,-38.55859 11.95218,-11.48797 24.8256,-16.73816 40.5957,-16.73828 z"
         inkscape:original="M 214.3125 765.8125 C 176.82699 765.81278 149.1347 780.13949 131.25 808.78125 C 113.3652 837.42348 104.43748 871.97897 104.4375 912.5 C 104.43748 953.94523 113.90303 986.72422 132.84375 1010.8125 C 151.78437 1034.9008 177.21436 1046.9375 209.15625 1046.9375 C 237.27016 1046.9375 260.35807 1037.7252 278.375 1019.3125 C 296.39154 1000.8998 305.37478 979.02981 305.375 953.6875 C 305.37478 929.2693 296.89812 908.33268 279.9375 890.84375 C 262.97649 873.35513 241.95311 864.59393 216.875 864.59375 C 200.37602 864.59393 184.75163 869.08729 169.96875 878.0625 C 155.1857 887.03804 143.77013 900.82693 135.71875 919.4375 C 136.90661 835.62349 162.84667 793.719 213.53125 793.71875 C 241.11719 793.719 260.10379 807.45238 270.53125 834.90625 L 301.03125 826.59375 C 286.38006 786.0728 257.47335 765.81278 214.3125 765.8125 z M 211.53125 891.9375 C 229.21788 891.93765 244.05466 898.152 256 910.625 C 267.94499 923.09826 273.90606 938.04606 273.90625 955.46875 C 273.90606 973.1556 267.80272 988.30117 255.59375 1000.9062 C 243.38443 1013.5114 227.70104 1019.8125 208.5625 1019.8125 C 189.42372 1019.8125 173.79932 1013.4837 161.65625 1000.8125 C 149.51302 988.14143 143.43744 973.7037 143.4375 957.46875 C 143.43744 939.91406 150.24862 924.59847 163.84375 911.53125 C 177.43872 898.4643 193.3164 891.93765 211.53125 891.9375 z "
         transform="matrix(1.1868,-0.17337,0.1567,1.0727,-163.02,-136.73)"
         inkscape:radius="10.23459" />
      <path
         id="path3970"
         style="fill:#ffffff"
         sodipodi:type="inkscape:offset"
         d="m 214.3125,755.57812 c -40.0932,3e-4 -72.15769,16.41614 -91.74414,47.78321 C 103.53529,833.8425 94.203104,870.47569 94.203125,912.5 c -2.1e-5,43.00353 9.890545,78.30643 30.595705,104.6387 20.66792,26.285 49.84439,40.0332 84.35742,40.0332 30.34967,0 56.65295,-10.3842 76.5332,-30.7012 19.66044,-20.0927 29.91968,-45.02233 29.91993,-72.7832 -2.5e-4,-26.78674 -9.70815,-50.7728 -28.32422,-69.96875 -18.71431,-19.29645 -42.94841,-29.35918 -70.41016,-29.35937 -18.35711,2e-4 -35.99466,5.10604 -52.2168,14.95507 a 10.235613,10.235613 0 0 0 -0.002,0 c -5.80199,3.52268 -11.10101,7.75368 -15.95703,12.56055 3.06061,-21.97759 8.54151,-39.18258 16.0664,-51.33984 11.39889,-18.41611 26.24388,-26.58192 48.76563,-26.58204 24.18919,2.2e-4 38.06615,9.93001 47.43164,34.5879 a 10.235613,10.235613 0 0 0 12.25977,6.24023 l 30.5,-8.3125 a 10.235613,10.235613 0 0 0 6.93359,-13.35547 C 294.91229,779.57004 260.67611,755.57843 214.3125,755.57812 Z m -2.78125,146.59376 c 15.28934,1.2e-4 26.88437,4.88924 37.07617,15.53124 10.29638,10.75174 15.06429,22.67735 15.06446,37.76563 -1.7e-4,15.33243 -4.88523,27.42988 -15.42969,38.31641 -10.34785,10.68334 -22.78755,15.79294 -39.67969,15.79294 -16.88253,0 -29.23103,-5.1137 -39.51758,-15.84763 -10.63602,-11.09835 -15.3731,-22.58018 -15.37304,-36.26172 -6e-5,-14.90734 5.31778,-27.07658 17.26367,-38.55859 11.95218,-11.48797 24.8256,-16.73816 40.5957,-16.73828 z"
         inkscape:original="M 214.3125 765.8125 C 176.82699 765.81278 149.1347 780.13949 131.25 808.78125 C 113.3652 837.42348 104.43748 871.97897 104.4375 912.5 C 104.43748 953.94523 113.90303 986.72422 132.84375 1010.8125 C 151.78437 1034.9008 177.21436 1046.9375 209.15625 1046.9375 C 237.27016 1046.9375 260.35807 1037.7252 278.375 1019.3125 C 296.39154 1000.8998 305.37478 979.02981 305.375 953.6875 C 305.37478 929.2693 296.89812 908.33268 279.9375 890.84375 C 262.97649 873.35513 241.95311 864.59393 216.875 864.59375 C 200.37602 864.59393 184.75163 869.08729 169.96875 878.0625 C 155.1857 887.03804 143.77013 900.82693 135.71875 919.4375 C 136.90661 835.62349 162.84667 793.719 213.53125 793.71875 C 241.11719 793.719 260.10379 807.45238 270.53125 834.90625 L 301.03125 826.59375 C 286.38006 786.0728 257.47335 765.81278 214.3125 765.8125 z M 211.53125 891.9375 C 229.21788 891.93765 244.05466 898.152 256 910.625 C 267.94499 923.09826 273.90606 938.04606 273.90625 955.46875 C 273.90606 973.1556 267.80272 988.30117 255.59375 1000.9062 C 243.38443 1013.5114 227.70104 1019.8125 208.5625 1019.8125 C 189.42372 1019.8125 173.79932 1013.4837 161.65625 1000.8125 C 149.51302 988.14143 143.43744 973.7037 143.4375 957.46875 C 143.43744 939.91406 150.24862 924.59847 163.84375 911.53125 C 177.43872 898.4643 193.3164 891.93765 211.53125 891.9375 z "
         transform="matrix(1.1868,-0.17337,0.1567,1.0727,-164.02,-139.73)"
         inkscape:radius="10.23459" />
      <path
         id="path3972"
         style="fill:url(#linearGradient4045)"
         sodipodi:type="inkscape:offset"
         d="m 214.3125,755.57812 c -40.0932,3e-4 -72.15769,16.41614 -91.74414,47.78321 C 103.53529,833.8425 94.203104,870.47569 94.203125,912.5 c -2.1e-5,43.00353 9.890545,78.30643 30.595705,104.6387 20.66792,26.285 49.84439,40.0332 84.35742,40.0332 30.34967,0 56.65295,-10.3842 76.5332,-30.7012 19.66044,-20.0927 29.91968,-45.02233 29.91993,-72.7832 -2.5e-4,-26.78674 -9.70815,-50.7728 -28.32422,-69.96875 -18.71431,-19.29645 -42.94841,-29.35918 -70.41016,-29.35937 -18.35711,2e-4 -35.99466,5.10604 -52.2168,14.95507 a 10.235613,10.235613 0 0 0 -0.002,0 c -5.80199,3.52268 -11.10101,7.75368 -15.95703,12.56055 3.06061,-21.97759 8.54151,-39.18258 16.0664,-51.33984 11.39889,-18.41611 26.24388,-26.58192 48.76563,-26.58204 24.18919,2.2e-4 38.06615,9.93001 47.43164,34.5879 a 10.235613,10.235613 0 0 0 12.25977,6.24023 l 30.5,-8.3125 a 10.235613,10.235613 0 0 0 6.93359,-13.35547 C 294.91229,779.57004 260.67611,755.57843 214.3125,755.57812 Z m -2.78125,146.59376 c 15.28934,1.2e-4 26.88437,4.88924 37.07617,15.53124 10.29638,10.75174 15.06429,22.67735 15.06446,37.76563 -1.7e-4,15.33243 -4.88523,27.42988 -15.42969,38.31641 -10.34785,10.68334 -22.78755,15.79294 -39.67969,15.79294 -16.88253,0 -29.23103,-5.1137 -39.51758,-15.84763 -10.63602,-11.09835 -15.3731,-22.58018 -15.37304,-36.26172 -6e-5,-14.90734 5.31778,-27.07658 17.26367,-38.55859 11.95218,-11.48797 24.8256,-16.73816 40.5957,-16.73828 z"
         inkscape:original="M 214.3125 765.8125 C 176.82699 765.81278 149.1347 780.13949 131.25 808.78125 C 113.3652 837.42348 104.43748 871.97897 104.4375 912.5 C 104.43748 953.94523 113.90303 986.72422 132.84375 1010.8125 C 151.78437 1034.9008 177.21436 1046.9375 209.15625 1046.9375 C 237.27016 1046.9375 260.35807 1037.7252 278.375 1019.3125 C 296.39154 1000.8998 305.37478 979.02981 305.375 953.6875 C 305.37478 929.2693 296.89812 908.33268 279.9375 890.84375 C 262.97649 873.35513 241.95311 864.59393 216.875 864.59375 C 200.37602 864.59393 184.75163 869.08729 169.96875 878.0625 C 155.1857 887.03804 143.77013 900.82693 135.71875 919.4375 C 136.90661 835.62349 162.84667 793.719 213.53125 793.71875 C 241.11719 793.719 260.10379 807.45238 270.53125 834.90625 L 301.03125 826.59375 C 286.38006 786.0728 257.47335 765.81278 214.3125 765.8125 z M 211.53125 891.9375 C 229.21788 891.93765 244.05466 898.152 256 910.625 C 267.94499 923.09826 273.90606 938.04606 273.90625 955.46875 C 273.90606 973.1556 267.80272 988.30117 255.59375 1000.9062 C 243.38443 1013.5114 227.70104 1019.8125 208.5625 1019.8125 C 189.42372 1019.8125 173.79932 1013.4837 161.65625 1000.8125 C 149.51302 988.14143 143.43744 973.7037 143.4375 957.46875 C 143.43744 939.91406 150.24862 924.59847 163.84375 911.53125 C 177.43872 898.4643 193.3164 891.93765 211.53125 891.9375 z "
         transform="matrix(1.1868,-0.17337,0.1567,1.0727,-160.02,-135.73)"
         inkscape:radius="10.23459" />
      <path
         id="path3999"
         style="fill:url(#linearGradient4047)"
         inkscape:connector-curvature="0"
         d="m 232.88,634.89 c -6.5698,0.14197 -13.33,0.73916 -20.25,1.75 -47.874,6.9937 -83.557,30.324 -102,67.594 -3.3308,6.7312 -6.2508,13.62 -8.7188,20.688 30.778,-34.723 84.033,-59.403 144.59,-62.562 27.118,-1.4149 52.764,1.6511 75.594,8.2812 -22.357,-24.184 -52.996,-36.533 -89.219,-35.75 z" />
      <path
         id="path3990"
         d="M 353.5,294.78 C 315.11,322.64 249.27,341 174.5,341 c -5.5319,0 -11.011,-0.11499 -16.438,-0.3125 26.978,18.441 59.852,25.276 95.969,20 36.24,-5.2938 65.996,-21.105 86.531,-46.5 5.0624,-6.2605 9.3738,-12.737 12.938,-19.406 z"
         style="fill:url(#linearGradient4049);filter:url(#filter4020)"
         inkscape:connector-curvature="0"
         transform="translate(0,602.36)" />
      <path
         id="path4024"
         d="m 263.12,95.438 c 6.6464,4.84 12.536,11.693 18,20.75 a 11.096,12.277 1.4257 0 0 15.5,4.5625 l 21.57,-8.75 c -14.14,-10.06 -33.1,-15.85 -55.07,-16.562 z m -94.938,24.125 c -32.574,17.299 -59.724,42.048 -76.156,68.781 0.002,11.707 0.9149,23.745 2.7188,36.094 4.7315,32.39 14.689,59.853 30.125,81.875 22.707,7.2705 51.535,7.3621 82.969,-1.3125 -3.9959,-1.69 -7.8184,-3.8052 -11.531,-6.4062 -14.362,-10.061 -21.762,-21.542 -23.906,-36.219 -2.336,-15.991 2.0588,-29.987 14.438,-44.375 12.385,-14.395 26.846,-22.235 45.562,-24.969 18.146,-2.6506 32.674,0.56983 46.438,10.219 13.905,9.7485 21.417,21.721 23.781,37.906 0.42327,2.8978 0.62629,5.6904 0.65625,8.4375 20.585,-20.633 34.966,-44.289 39.875,-67.625 -6.5314,-8.1338 -14.48,-15.463 -23.75,-21.875 -25.235,-17.455 -55.563,-24.073 -88.156,-19.312 -21.787,3.1828 -41.915,11.747 -59.625,25.125 -6.3393,4.7887 -11.956,10.214 -16.969,16.219 0.18891,-24.105 4.0057,-43.498 11.031,-57.844 0.79822,-1.6299 1.6359,-3.2049 2.5,-4.7188 z"
         style="color:#000000;opacity:0.6;fill:url(#linearGradient4051)"
         inkscape:connector-curvature="0"
         transform="translate(0,602.36)" />
    </g>
  </g>
  <metadata
     id="metadata29">
    <rdf:RDF>
      <cc:Work>
        <dc:format>image/svg+xml</dc:format>
        <dc:type
           rdf:resource="http://purl.org/dc/dcmitype/StillImage" />
        <cc:license
           rdf:resource="http://creativecommons.org/publicdomain/zero/1.0/" />
        <dc:publisher>
          <cc:Agent
             rdf:about="http://openclipart.org/">
            <dc:title>Openclipart</dc:title>
          </cc:Agent>
        </dc:publisher>
        <dc:title></dc:title>
      </cc:Work>
      <cc:License
         rdf:about="http://creativecommons.org/publicdomain/zero/1.0/">
        <cc:permits
           rdf:resource="http://creativecommons.org/ns#Reproduction" />
        <cc:permits
           rdf:resource="http://creativecommons.org/ns#Distribution" />
        <cc:permits
           rdf:resource="http://creativecommons.org/ns#DerivativeWorks" />
      </cc:License>
    </rdf:RDF>
  </metadata>
</svg>
