<?xml version="1.0" encoding="UTF-8" standalone="no"?>
<!-- Created with Inkscape (http://www.inkscape.org/) -->

<svg
   xmlns:dc="http://purl.org/dc/elements/1.1/"
   xmlns:cc="http://creativecommons.org/ns#"
   xmlns:rdf="http://www.w3.org/1999/02/22-rdf-syntax-ns#"
   xmlns:svg="http://www.w3.org/2000/svg"
   xmlns="http://www.w3.org/2000/svg"
   xmlns:sodipodi="http://sodipodi.sourceforge.net/DTD/sodipodi-0.dtd"
   xmlns:inkscape="http://www.inkscape.org/namespaces/inkscape"
   id="svg2"
   sodipodi:docname="number-3.svg"
   inkscape:export-filename="number-3.png"
   viewBox="0 0 17.99999 27.000071"
   inkscape:export-xdpi="90"
   version="1.1"
   inkscape:export-ydpi="90"
   inkscape:version="0.92.2 (30a58d1, 2017-08-07)"
   width="17.99999"
   height="27.000071">
  <defs
     id="defs4">
    <linearGradient
       id="linearGradient4093"
       y2="979.35999"
       gradientUnits="userSpaceOnUse"
       x2="241"
       gradientTransform="matrix(0.07748697,0,0,0.07701684,111.07195,913.85034)"
       y1="671.35999"
       x1="240"
       inkscape:collect="always">
      <stop
         id="stop4089"
         style="stop-color:#ffd42a"
         offset="0" />
      <stop
         id="stop4091"
         style="stop-color:#f1ab00"
         offset="1" />
    </linearGradient>
  </defs>
  <sodipodi:namedview
     id="base"
     bordercolor="#666666"
     inkscape:pageshadow="2"
     inkscape:window-y="24"
     pagecolor="#ffffff"
     inkscape:window-height="744"
     inkscape:window-maximized="1"
     inkscape:zoom="1"
     inkscape:window-x="65"
     showgrid="false"
     borderopacity="1.0"
     inkscape:current-layer="layer1"
     inkscape:cx="104.19127"
     inkscape:cy="138.17134"
     inkscape:window-width="1301"
     inkscape:pageopacity="0.0"
     inkscape:document-units="px"
     fit-margin-top="0"
     fit-margin-left="0"
     fit-margin-right="0"
     fit-margin-bottom="0" />
  <g
     id="layer1"
     inkscape:label="Layer 1"
     inkscape:groupmode="layer"
     transform="translate(-120.80873,-963.29055)">
    <path
       id="path4022"
       style="fill:url(#linearGradient4093);stroke-width:0.07561079"
       inkscape:connector-curvature="0"
       d="m 129.80742,963.29097 c -0.16839,10e-4 -0.33836,0.004 -0.51095,0.01 -1.31919,0.0462 -2.58778,0.22687 -3.8067,0.54481 -1.22537,0.31965 -2.40045,0.80198 -3.5185,1.44724 a 0.48046933,0.47619727 0 0 0 -0.23732,0.3984 l -0.10413,3.40564 a 0.48046933,0.47619727 0 0 0 0.73132,0.42001 c 0.52164,-0.31953 1.0752,-0.60789 1.66122,-0.8616 0.59332,-0.25687 1.18077,-0.47991 1.76293,-0.67201 0.58064,-0.19158 1.13292,-0.34048 1.65395,-0.44641 0.522,-0.10608 0.98115,-0.16379 1.37545,-0.1776 0.61629,-0.0215 1.1738,0.024 1.67086,0.132 0.48667,0.10577 0.88613,0.28133 1.21566,0.52321 0.32438,0.23817 0.57133,0.5422 0.75553,0.93842 0.17551,0.37763 0.26576,0.86695 0.247,1.47845 -0.0167,0.54339 -0.14974,1.04576 -0.40682,1.5288 -0.25286,0.47513 -0.62691,0.89515 -1.143,1.26964 -0.51247,0.37188 -1.17122,0.68787 -1.98082,0.9336 -0.79854,0.24241 -1.75186,0.38614 -2.85747,0.4248 l -1.35127,0.048 a 0.48046933,0.47619727 0 0 0 -0.46493,0.46081 l -0.0969,3.21123 a 0.48046933,0.47619727 0 0 0 0.49642,0.48961 l 2.12856,-0.0744 c 0.99079,-0.0346 1.88473,0.0223 2.68068,0.168 0.79505,0.1456 1.46344,0.37549 2.00987,0.68161 0.54332,0.30439 0.93346,0.67098 1.20353,1.10644 0.26427,0.42618 0.39138,0.91995 0.37292,1.52164 -0.0385,1.25374 -0.45784,2.1899 -1.28104,2.92562 -0.80035,0.7153 -2.09299,1.14526 -3.93259,1.20964 -0.45535,0.0159 -0.95393,-0.0117 -1.4965,-0.0864 -0.54521,-0.0751 -1.10311,-0.18769 -1.67086,-0.3384 -0.56609,-0.15028 -1.1317,-0.33963 -1.69755,-0.56641 -0.5631,-0.22568 -1.08552,-0.48062 -1.57159,-0.76323 a 0.48046933,0.47619727 0 0 0 -0.72405,0.396 l -0.11139,3.58324 a 0.48046933,0.47619727 0 0 0 0.26395,0.43921 c 0.96447,0.48793 2.05143,0.83191 3.25943,1.0392 1.20345,0.2065 2.47879,0.28464 3.82368,0.2376 1.51691,-0.053 2.91792,-0.28589 4.1966,-0.7032 1.27482,-0.41605 2.38923,-0.98455 3.33694,-1.71123 0.94923,-0.72787 1.70104,-1.60335 2.2424,-2.61361 0.54436,-1.01599 0.83691,-2.14127 0.87422,-3.35521 0.024,-0.78396 -0.12052,-1.53506 -0.43346,-2.22962 -0.31192,-0.69222 -0.77624,-1.30636 -1.37546,-1.83606 -0.5976,-0.52811 -1.3116,-0.96344 -2.13341,-1.3056 -0.38606,-0.16073 -0.79429,-0.29515 -1.22044,-0.40801 0.28265,-0.14375 0.56614,-0.28841 0.83304,-0.4536 0.70342,-0.43538 1.31751,-0.93586 1.83794,-1.50242 0.52136,-0.56752 0.94073,-1.19834 1.25433,-1.88641 0.31905,-0.7 0.49155,-1.45214 0.5158,-2.24161 0.033,-1.07705 -0.14155,-2.057 -0.53517,-2.92087 -0.39121,-0.85844 -0.97888,-1.59001 -1.74351,-2.17685 -0.76713,-0.58866 -1.70317,-1.01712 -2.79452,-1.29361 -0.82113,-0.20797 -1.72296,-0.322 -2.70488,-0.34561 -0.16365,-0.004 -0.33045,-0.004 -0.49884,-0.002 z" />
  </g>
  <metadata
     id="metadata28">
    <rdf:RDF>
      <cc:Work>
        <dc:format>image/svg+xml</dc:format>
        <dc:type
           rdf:resource="http://purl.org/dc/dcmitype/StillImage" />
        <cc:license
           rdf:resource="http://creativecommons.org/publicdomain/zero/1.0/" />
        <dc:publisher>
          <cc:Agent
             rdf:about="http://openclipart.org/">
            <dc:title>Openclipart</dc:title>
          </cc:Agent>
        </dc:publisher>
        <dc:title></dc:title>
      </cc:Work>
      <cc:License
         rdf:about="http://creativecommons.org/publicdomain/zero/1.0/">
        <cc:permits
           rdf:resource="http://creativecommons.org/ns#Reproduction" />
        <cc:permits
           rdf:resource="http://creativecommons.org/ns#Distribution" />
        <cc:permits
           rdf:resource="http://creativecommons.org/ns#DerivativeWorks" />
      </cc:License>
    </rdf:RDF>
  </metadata>
</svg>
