<?xml version="1.0" encoding="UTF-8" standalone="no"?>
<svg
   xmlns:dc="http://purl.org/dc/elements/1.1/"
   xmlns:cc="http://creativecommons.org/ns#"
   xmlns:rdf="http://www.w3.org/1999/02/22-rdf-syntax-ns#"
   xmlns:svg="http://www.w3.org/2000/svg"
   xmlns="http://www.w3.org/2000/svg"
   xmlns:sodipodi="http://sodipodi.sourceforge.net/DTD/sodipodi-0.dtd"
   xmlns:inkscape="http://www.inkscape.org/namespaces/inkscape"
   version="1.1"
   id="Layer_1"
   x="0px"
   y="0px"
   viewBox="15.41 -30 100.00001 250.00302"
   enable-background="new 15.41 -30 1985.59 4215.305"
   xml:space="preserve"
   sodipodi:docname="jump.svg"
   width="100.00001"
   height="250.00305"
   inkscape:version="0.92.2 (30a58d1, 2017-08-07)"><metadata
     id="metadata9"><rdf:RDF><cc:Work
         rdf:about=""><dc:format>image/svg+xml</dc:format><dc:type
           rdf:resource="http://purl.org/dc/dcmitype/StillImage" /><dc:title></dc:title></cc:Work></rdf:RDF></metadata><defs
     id="defs7" /><sodipodi:namedview
     pagecolor="#ffffff"
     bordercolor="#666666"
     borderopacity="1"
     objecttolerance="10"
     gridtolerance="10"
     guidetolerance="10"
     inkscape:pageopacity="0"
     inkscape:pageshadow="2"
     inkscape:window-width="1301"
     inkscape:window-height="744"
     id="namedview5"
     showgrid="false"
     fit-margin-top="0"
     fit-margin-left="0"
     fit-margin-right="0"
     fit-margin-bottom="0"
     inkscape:zoom="2.5336578"
     inkscape:cx="50.104582"
     inkscape:cy="178.76484"
     inkscape:window-x="65"
     inkscape:window-y="24"
     inkscape:window-maximized="1"
     inkscape:current-layer="Layer_1" /><path
     enable-background="new    "
     d="m 114.90868,-13.098563 c 0.24558,-1.826207 0.0681,-3.679426 0.22145,-5.512896 0.0284,-0.710235 0.20644,-1.394971 0.27615,-2.098456 0.0359,-0.401749 -0.1968,-0.732235 -0.30886,-1.089734 0.0885,-0.658486 0.23915,-1.308971 0.2547,-1.977719 0.01,-0.625986 0.0879,-1.256222 0.004,-1.879207 -0.0911,-0.472249 -0.19733,-0.942735 -0.34264,-1.397234 -0.097,-0.315236 -0.0938,-0.655485 -0.17051,-0.976234 -0.0665,-0.323737 -0.22145,-0.610486 -0.30993,-0.925722 -0.12118,-0.391249 -0.2933,-0.793486 -0.59143,-1.044235 -0.0316,0.0875 -0.0611,0.175 -0.0869,0.264249 -0.14317,0.085 -0.29706,0.187487 -0.34853,0.373987 -0.17534,0.500736 -0.0295,1.038234 0.0917,1.53022 0.0563,0.264749 0.16997,0.523249 0.14263,0.802735 -0.0332,0.407249 0.044,0.811485 0.074,1.216234 0.0166,0.270237 0.0869,0.555986 -0.0139,0.815235 -0.0954,-0.194999 -0.18928,-0.389499 -0.2933,-0.577986 -0.16408,-0.314499 -0.42038,-0.542498 -0.61449,-0.829235 -0.40912,-0.553498 -0.82951,-1.100234 -1.3137,-1.568982 -0.33298,-0.400487 -0.70993,-0.752486 -1.12495,-1.035472 -0.30135,-0.1975 -0.53567,-0.503749 -0.84452,-0.687998 -0.16032,-0.0925 -0.348,-0.209987 -0.52709,-0.115 0.015,0.08 0.0343,0.162487 0.0531,0.242487 -0.0735,0.134999 -0.14747,0.279499 -0.14532,0.444249 -0.015,0.263986 0.12923,0.488236 0.24666,0.700735 -0.0231,0.560236 0.28526,1.021484 0.55819,1.448971 0.1941,0.340999 0.48901,0.613735 0.60644,1.006234 0.0461,0.398749 0.13083,0.795485 0.30724,1.146984 0.10403,0.214987 0.24129,0.415737 0.27615,0.665236 0.0917,0.485736 0.20268,0.969234 0.36944,1.429221 0.15175,0.516735 0.19303,1.064484 0.29009,1.59597 0.0424,0.179999 -0.0783,0.330999 -0.13137,0.488998 -0.22146,0.500486 -0.17105,1.091472 -0.0274,1.610471 -0.11314,0.0725 -0.22896,0.137487 -0.34639,0.197486 -0.69277,-0.668235 -1.06489,-1.65297 -1.70834,-2.372705 -0.43272,-0.607486 -0.92013,-1.183221 -1.51638,-1.57872 -0.17105,-0.12 -0.40162,-0.05 -0.52226,0.122499 -0.1362,0.165 -0.14692,0.401749 -0.18875,0.611736 -0.0938,0.426999 0.0477,0.864235 0.20858,1.246234 0.4472,0.980984 1.23434,1.67397 1.77806,2.575705 0.22949,0.446486 0.34478,0.966222 0.36998,1.48097 0.097,0.330987 0.1689,0.678236 0.33673,0.975485 0.21877,0.477736 0.50028,0.916485 0.67776,1.418971 0.10939,0.313249 0.32762,0.555235 0.43593,0.868485 0.10778,0.308499 0.25256,0.609985 0.28044,0.945484 0.004,0.306487 -0.044,0.610486 -0.0772,0.914485 -0.13566,1.066972 -0.2236,2.141206 -0.38178,3.20469 -0.19464,1.375971 -0.42735,2.744455 -0.64505,4.116176 -0.2606,1.66522 -0.54585,3.32494 -0.8413,4.98266 -0.19572,1.288221 -0.37964,2.578705 -0.59788,3.861926 -0.22359,1.168484 -0.52172,2.316955 -0.86382,3.44669 -0.38874,1.380224 -0.8043,2.7542 -1.09224,4.168425 -0.24933,1.314976 -0.43379,2.644952 -0.67508,3.961928 -0.16677,0.674988 -0.33406,1.350726 -0.53192,2.014714 -0.20429,7.5e-4 -0.41448,0.025 -0.59894,0.127497 -0.22735,0.115 -0.33995,0.385744 -0.4933,0.59274 -0.15497,0.207496 -0.12601,0.498241 -0.19465,0.745236 -0.0804,0.278245 -0.21823,0.531991 -0.27399,0.820485 -0.067,0.338494 -0.12548,0.680738 -0.22467,1.009232 -0.11636,0.395743 -0.17373,0.808985 -0.24666,1.216228 -0.0692,0.394992 -0.17694,0.783986 -0.19249,1.188729 -0.0102,0.1 0.0456,0.187497 0.0751,0.277495 0.0295,0.025 0.0879,0.045 0.11689,0.06 -0.39947,1.435474 -0.7523,2.886948 -1.15714,4.320672 -0.34853,1.334226 -0.79626,2.630952 -1.2279,3.932428 -0.19839,0.62349 -0.49277,1.203479 -0.64934,1.845217 -0.13512,0.54799 -0.39786,1.038731 -0.539423,1.584222 -0.1807,0.672738 -0.408051,1.326726 -0.641292,1.977964 -0.19143,0.536741 -0.23379,1.135229 -0.495991,1.64072 -0.187671,0.421243 -0.508862,0.726737 -0.791973,1.059481 -0.16783,0.194997 -0.379101,0.354994 -0.482051,0.611239 -0.123321,0.249996 -0.089,0.55474 -0.216091,0.803985 -0.0424,0.209997 -0.0408,0.436743 -0.163001,0.61749 0.007,0.154997 -0.007,0.314994 -0.0783,0.452741 -0.0751,0.137498 -0.0563,0.302745 -0.0954,0.451992 -0.151211,0.397993 -0.156571,0.856985 -0.345851,1.238478 0,0.09 -5.4e-4,0.182497 -0.022,0.271495 -0.0842,-0.794236 -0.271861,-1.566471 -0.406452,-2.349708 -0.12225,-0.585239 -0.11796,-1.189229 -0.18927,-1.782467 -0.0456,-0.732238 -0.0273,-1.482224 0.16032,-2.189211 0.170511,-0.569489 0.637542,-0.901233 0.967313,-1.337226 0.367831,-0.417742 0.664352,-0.920233 0.841833,-1.479223 0.161941,-0.54299 0.207511,-1.121729 0.194651,-1.69222 0.0155,-0.882734 -0.0649,-1.762967 -0.169441,-2.636452 -0.12279,-0.995732 -0.265961,-2.049713 -0.817713,-2.867948 -0.21448,-0.364244 -0.545321,-0.616739 -0.742642,-0.995232 -0.10724,-0.199997 -0.12118,-0.440992 -0.160861,-0.665738 0.0879,-0.095 0.174801,-0.192497 0.262741,-0.286995 -0.009,-0.1225 -0.0161,-0.249996 -0.0751,-0.356243 0.006,-0.0925 0.0156,-0.184997 0.0257,-0.275745 -0.0483,0.025 -0.0954,0.035 -0.14156,0.0525 -0.0563,-0.257245 -0.163541,-0.562489 -0.417172,-0.622238 -0.0402,-0.0975 -0.082,-0.197497 -0.13512,-0.286245 -0.0161,-0.247496 -0.10563,-0.485741 -0.263271,-0.655988 -0.0617,-0.132497 -0.13834,-0.254246 -0.215561,-0.373993 0.0161,-0.162497 -0.003,-0.329994 -0.11743,-0.439992 -0.0863,-0.310744 -0.353351,-0.502991 -0.556572,-0.712487 -10e-4,0.095 0,0.189996 0.003,0.284494 -0.0129,-0.025 -0.0397,-0.0575 -0.0525,-0.0775 l 0.0134,-0.025 c -0.009,-0.164997 -0.0145,-0.331244 -0.0145,-0.496491 0.0354,0 0.1067,0 0.14209,-0.025 0.178561,0.159997 0.313681,0.367992 0.454162,0.569489 0.0874,0.147497 0.16247,0.344494 0.334061,0.380243 -0.004,-0.095 -0.006,-0.187496 -0.009,-0.281494 0.03,-0.025 0.0911,-0.07 0.12172,-0.095 -0.14317,-0.244996 -0.318511,-0.461742 -0.522801,-0.638738 -0.197321,-0.144998 -0.389822,-0.300996 -0.606442,-0.405994 -0.004,0 -0.0129,-0.035 -0.0172,-0.0475 -0.194641,-0.499491 -0.404832,-1.020982 -0.347461,-1.583471 0.0702,-0.0275 0.045,-0.134997 0.0713,-0.197496 -0.0643,0 -0.127081,-0.025 -0.189811,-0.025 -0.0531,0.045 -0.10563,0.0925 -0.15657,0.137497 -0.0311,-0.0675 -0.0611,-0.134997 -0.0901,-0.202496 0.005,-0.204996 0.0295,-0.407992 0.0257,-0.611739 -0.0402,0.1175 -0.0847,0.234996 -0.10134,0.360494 -0.0134,0.197496 -0.0322,0.393743 -0.0708,0.587239 -0.0681,-0.244995 -0.0837,-0.504241 -0.11153,-0.757486 -0.0617,0.0625 -0.120111,0.125 -0.179091,0.189996 -0.0134,-0.0625 -0.0236,-0.127497 -0.0306,-0.189996 -0.0172,-0.237496 -0.0268,-0.472992 -0.0295,-0.709238 0.037,-0.12 0.005,-0.239995 -0.0402,-0.350244 -0.102411,0.147498 -0.185521,0.312745 -0.264881,0.478492 -0.0697,-0.237495 -0.116361,-0.479742 -0.172661,-0.719987 -0.11957,-0.167497 -0.247191,-0.329744 -0.405371,-0.449492 -0.128691,-0.251995 -0.394111,-0.0425 -0.579632,-0.0275 0.0316,0.0425 0.0708,0.07 0.11743,0.0825 0.0761,0.07 0.157101,0.134999 0.232711,0.207497 -0.0724,0.174997 -0.0649,0.401743 -0.195181,0.53874 -0.0901,0.05 -0.12601,-0.0925 -0.1807,-0.144997 -0.0113,-0.345244 -0.119571,-0.670238 -0.223061,-0.989482 -0.13298,-0.390743 -0.340491,-0.767237 -0.654172,-0.998232 -0.0482,-0.1175 -0.168361,-0.154997 -0.257911,-0.214997 -0.0215,0.0325 -0.0643,0.0975 -0.0858,0.129998 -0.1244,0 -0.248261,0.025 -0.370521,0.0275 0.0536,0.05 0.0847,0.159997 0.16462,0.167497 0.335121,0.252496 0.538342,0.667737 0.635402,1.105229 l 0.009,0.0023 c 0.0702,0.312244 0.137261,0.62974 0.112061,0.954734 -0.0847,-0.0475 -0.169441,-0.085 -0.246651,-0.142499 -0.097,-0.316994 -0.151751,-0.663988 -0.302421,-0.950982 -0.0515,-0.162497 -0.11689,-0.330994 -0.241291,-0.437242 -0.215021,-0.184997 -0.395181,-0.413993 -0.581242,-0.633488 0.0284,0 0.0858,0.0375 0.114211,0.0475 -0.132441,-0.304494 -0.246651,-0.650488 -0.491702,-0.859233 -0.13083,-0.0275 -0.258451,0.0475 -0.383381,0.0775 -0.006,0.0375 -0.0193,0.114999 -0.0257,0.154997 0.037,0.122499 0.0783,0.247495 0.15014,0.352744 0.0118,0.025 0.0359,0.07 0.0477,0.095 0.0273,0.247496 0.165151,0.465493 0.146921,0.720488 -0.308861,-0.286745 -0.625752,-0.563741 -0.950693,-0.825485 -0.170511,-0.272745 -0.371052,-0.536241 -0.641302,-0.681238 -0.0965,0.189997 -0.160321,0.399243 -0.197851,0.615488 -0.0123,-0.104999 -0.0241,-0.209995 -0.0365,-0.314494 -0.0702,0.0825 -0.143161,0.162497 -0.194101,0.263496 -0.11475,0.192497 -0.0332,0.429992 -0.0214,0.643238 -0.0515,0.025 -0.10188,0.0475 -0.15121,0.07 -0.06,0.159998 -0.138341,0.311995 -0.230561,0.451492 -0.145851,-0.1075 -0.254701,-0.261745 -0.379101,-0.394493 -0.0129,-0.0725 -0.0853,-0.0825 -0.129221,-0.112499 0.0279,0.157497 0.0627,0.313244 0.0981,0.469241 -0.089,-0.0925 -0.174261,-0.189996 -0.268641,-0.275744 -0.121181,0.127497 -0.179091,0.416492 -0.0413,0.558989 0.12011,0.085 0.1496,0.232496 0.13297,0.385743 -0.0595,0 -0.11796,0.025 -0.175871,0.025 -0.0745,-0.144997 -0.14853,-0.292494 -0.25577,-0.407243 -0.0391,-0.0525 -0.0837,-0.095 -0.124931,-0.139997 -0.0225,0.1025 -0.0407,0.207496 -0.0606,0.311994 -0.0547,-0.035 -0.10724,-0.07 -0.160331,-0.104999 -0.0375,0.0775 -0.0719,0.154997 -0.10777,0.232495 -0.0611,-0.0525 -0.12333,-0.1075 -0.18231,-0.157497 -0.177491,0.0875 -0.247731,0.296745 -0.179631,0.504241 l -0.015,0.0525 c -0.0252,-0.025 -0.0751,-0.06 -0.0997,-0.08 -0.0558,-0.244997 -0.282581,-0.326245 -0.450942,-0.441742 0.0257,0.129997 0.0617,0.257495 0.11635,0.376492 0.0166,0.0825 0.0429,0.159997 0.0686,0.239996 h 0.0188 l 0.0466,0.09 c -0.074,-0.0325 -0.149601,-0.065 -0.221991,-0.0975 0.01,0.157498 0.0499,0.313495 0.123331,0.449742 0.0992,0.187497 0.10724,0.405493 0.11153,0.61799 -0.0445,-0.1 -0.0869,-0.202497 -0.12869,-0.302746 l 0.0102,-0.04 c -0.0284,-0.035 -0.0858,-0.102499 -0.114211,-0.137498 0,-0.03 0,-0.09 -5.4e-4,-0.122499 -0.0504,0.0375 -0.0997,0.075 -0.14799,0.114999 -0.0316,0 -0.096,-0.035 -0.128151,-0.045 0.0172,0.07 0.0418,0.139997 0.0751,0.204997 0.0488,0.204996 0.23217,0.412243 0.096,0.620988 -0.0488,-0.0675 -0.0965,-0.132497 -0.143171,-0.199997 -0.0322,-0.284994 -0.0997,-0.562739 -0.14048,-0.845233 -0.0182,-0.152497 -0.0906,-0.281996 -0.178561,-0.391994 -0.0118,0.209997 0.0204,0.415992 0.044,0.622989 -0.0413,0.149997 -0.0777,0.300244 -0.10885,0.453241 -0.0697,-0.06 -0.12279,-0.174995 -0.219311,-0.169997 -0.0402,0.326246 0.0156,0.65924 -0.0118,0.988984 l -0.0209,0.08 c -0.0515,-0.107499 -0.0965,-0.219996 -0.13781,-0.331744 -0.0429,0 -0.0847,0 -0.125471,0.025 -0.0987,-0.212495 -0.20429,-0.426492 -0.359251,-0.592239 0.006,0.03 0.0177,0.0925 0.0236,0.1225 -0.16461,0.254995 -0.283121,0.551489 -0.336741,0.862984 -0.0322,0.340243 -0.0322,0.685487 -0.10027,1.020981 -0.0611,-0.179997 -0.12386,-0.358242 -0.195711,-0.531989 -0.0311,0.065 -0.0617,0.129997 -0.0901,0.197495 -0.059,-0.05 -0.11743,-0.1 -0.176411,-0.144997 0.006,0.0325 0.0177,0.095 0.0236,0.127497 0,0 0,0 0,0 0.005,0.025 0.0145,0.0525 0.0198,0.07 -0.0483,0.177496 -0.0445,0.363743 -0.0332,0.54724 -0.0279,-0.025 -0.0826,-0.0375 -0.10992,-0.0525 -0.0257,0.09 -0.0515,0.179996 -0.0751,0.269744 -0.0536,0 -0.10617,-0.025 -0.157651,-0.0275 0.0107,0.03 0.0332,0.085 0.0445,0.115 -0.008,0.0475 -0.0241,0.144998 -0.0322,0.194997 -0.0408,-0.055 -0.0831,-0.1075 -0.12494,-0.159997 -0.0794,10e-4 -0.158181,0 -0.235931,0 0.0134,0.0425 0.03,0.0825 0.0488,0.124999 -0.004,0.06 -0.0113,0.179997 -0.015,0.239997 -0.022,-0.025 -0.0654,-0.0575 -0.0869,-0.075 0.002,0.025 0.006,0.06 0.009,0.08 -0.0118,0.144998 -0.0209,0.291745 -0.0225,0.438492 -0.0987,-0.055 -0.205371,-0.085 -0.312611,-0.102499 0,0.147498 0.003,0.295495 0.0182,0.443492 l 0.0311,-0.085 c 0.001,0.0925 0.002,0.187497 0.004,0.281246 -0.0525,0.1075 -0.066,0.232495 -0.0826,0.353243 -0.0461,-0.12 -0.0928,-0.237496 -0.138341,-0.354993 -0.0885,0 -0.17695,0.025 -0.26435,0.03 l 0.0118,0.0475 c 0.0209,0.247495 0.0295,0.497991 0.007,0.747486 -0.0504,-0.04 -0.100271,-0.08 -0.148531,-0.117499 0.006,0.065 0.0182,0.197496 0.0241,0.262245 -0.097,-0.0575 -0.265421,-0.1 -0.320111,0.045 0.003,0.1225 0.0284,0.239997 0.0499,0.358744 l 0.0466,0.025 c 0.0214,0.114999 0.0466,0.227495 0.0584,0.345744 -0.115821,0.07 -0.238071,0.152497 -0.237541,0.322994 0.0204,0 0.0611,0.0325 0.082,0.045 0.005,0.184997 -0.15013,0.366744 -0.0579,0.54499 -0.0139,0.227496 -0.0595,0.450242 -0.0638,0.677987 -0.190881,0.174997 -0.223591,0.448493 -0.237531,0.710238 -0.0558,0.025 -0.0944,0.06 -0.11636,0.12 -0.0981,0.025 -0.196251,0.0375 -0.293841,0.0575 -0.176411,-0.0275 -0.306701,0.104999 -0.329221,0.300994 h 0.0477 c 0.0836,0.0975 0.1807,0.199997 0.18123,0.351244 -0.11474,0 -0.18016,0.132497 -0.261131,0.209995 0.0177,0.025 0.0531,0.0725 0.0708,0.095 -5.3e-4,0.05 5.4e-4,0.1 0.002,0.152497 0.15121,-0.1025 0.291691,-0.249995 0.310461,-0.462991 0.0724,0 0.13405,0.025 0.18445,0.0825 -0.11582,0.450241 -0.25309,0.901733 -0.305631,1.367474 -0.0767,0.65549 -0.16784,1.313228 -0.14049,1.976716 0.0145,0.142497 0.0853,0.268494 0.0837,0.414492 -0.15014,-0.182497 -0.0912,-0.445992 -0.12708,-0.669988 -0.008,0.274994 -0.045,0.55024 -0.0134,0.825485 0.0381,0 0.11475,0.025 0.15282,0.025 0.0134,0.227497 0.0681,0.450243 0.104021,0.674988 -0.0113,0.127499 -0.0247,0.257496 -0.0193,0.387744 0.0997,0.637488 0.380702,1.217228 0.472392,1.857966 0.0215,0.182497 0.0649,0.372994 0.201081,0.490741 0.0536,0.482241 0.23968,0.918483 0.404831,1.358726 0.0424,0.095 0.0981,0.182497 0.160861,0.261745 0.0284,-0.0625 0.0579,-0.124999 0.0874,-0.184997 0.0225,-0.0012 0.0676,0 0.0901,0 0.0268,0.0875 0.0493,0.184997 0.11742,0.247496 0.0525,0 0.105101,-0.025 0.157651,-0.04 0.11153,0.209997 0.189281,0.452492 0.344241,0.628989 0.0788,0.167497 0.161401,0.333994 0.252011,0.495741 0.224671,0.139997 0.312071,0.440243 0.485272,0.644738 l 5.3e-4,0.025 c 0.029,0.0525 0.059,0.1075 0.0901,0.162497 0.0381,0.0625 0.0756,0.125 0.11529,0.189996 0.0477,-0.0375 0.0954,-0.0775 0.145311,-0.115 0.24665,0.455741 0.549611,0.884484 0.937283,1.192228 -0.0338,0.0625 0.0954,0.0725 0.12547,0.115 0.0284,-0.0775 0.0574,-0.154997 0.0869,-0.232496 0.0354,0 0.105091,-0.0325 0.139941,-0.0425 0.0761,0.0725 0.15068,0.147499 0.228431,0.219997 0.0177,0.162497 0.1882,0.212496 0.293301,0.290494 0.0279,-0.287494 -0.192501,-0.470491 -0.282041,-0.713237 0.384451,0.251246 0.754432,0.52949 1.138353,0.782736 0.110461,0.129998 0.228961,0.255495 0.357652,0.365494 0.16997,0 0.2933,0.147497 0.392501,0.292244 0.0381,0.0725 0.0783,0.147498 0.11957,0.219997 0.0542,-0.025 0.110461,-0.0475 0.167831,-0.07 0.17266,0.095 0.0429,0.443491 0.271861,0.475241 0.20912,1.222477 0.443441,2.461455 0.350141,3.715182 -0.331381,-0.268495 -0.759803,-0.358744 -1.150164,-0.229995 -0.188201,0.202495 -0.391961,0.387742 -0.541562,0.630238 -0.302421,0.386994 -0.673472,0.705988 -1.093853,0.905484 -0.230031,0.104999 -0.425212,0.280245 -0.630572,0.432492 -0.231641,0.03 -0.464362,-0.025 -0.695993,0 -0.365161,0.0275 -0.705112,0.209997 -1.069193,0.242496 -0.255771,0.0275 -0.504572,-0.065 -0.757653,-0.085 -0.306181,-0.0425 -0.605382,0.0625 -0.901903,0.132498 -0.427351,0.1 -0.846122,0.265244 -1.282054,0.308744 -0.535131,-0.189997 -1.083133,-0.330244 -1.618265,-0.521991 -0.458451,-0.159997 -0.936753,-0.209996 -1.400025,-0.342244 -0.387681,-0.0875 -0.784472,-0.11 -1.168923,-0.214996 -0.580712,-0.167497 -1.182864,-0.174996 -1.770546,-0.293495 -1.950706,-0.366243 -3.901953,-0.722986 -5.853739,-1.081229 -1.218784,-0.250496 -2.426858,-0.565741 -3.625802,-0.921234 -0.12762,-0.199997 -0.197861,-0.477992 -0.413951,-0.576739 -0.226811,-0.134999 -0.458452,-0.255746 -0.695453,-0.363744 -0.528161,-0.242496 -1.003243,-0.625238 -1.557675,-0.793735 -0.292771,-0.085 -0.550141,-0.265246 -0.810742,-0.431743 -0.234851,-0.152497 -0.508852,-0.187497 -0.772133,-0.219997 -0.312071,-0.025 -0.492231,-0.399242 -0.801082,-0.429741 -0.202151,0 -0.395722,0.0825 -0.597332,0.09 -0.171051,0.025 -0.394112,0.0775 -0.454172,0.282494 0.008,0.242496 0.0129,0.488991 -0.0617,0.721737 -0.810203,-0.167497 -1.590915,-0.472991 -2.356078,-0.816235 -0.952293,-0.371743 -1.865986,-0.858734 -2.813459,-1.244478 -1.144264,-0.495741 -2.311577,-0.914733 -3.467631,-1.370474 -0.526552,-0.172497 -1.035404,-0.410243 -1.571605,-0.542991 -0.428432,-0.125 -0.850423,-0.280744 -1.288504,-0.359993 -0.851493,-0.189997 -1.695476,-0.427492 -2.551259,-0.593989 -0.582852,-0.0925 -1.154974,-0.254246 -1.737295,-0.347744 -1.183404,-0.197497 -2.360368,-0.434743 -3.540016,-0.656488 -1.262759,-0.287496 -2.531953,-0.535741 -3.796857,-0.810985 -0.628966,-0.137499 -1.265976,-0.239996 -1.879929,-0.454493 -0.194642,-0.0625 -0.3984,-0.06 -0.597867,-0.085 -0.814494,-0.129998 -1.638102,-0.274495 -2.462247,-0.189996 -0.879374,0.0625 -1.742125,0.303494 -2.62418,0.341993 -0.569985,0.025 -1.14265,0.142498 -1.711562,0.0375 -0.253624,-0.0525 -0.510465,-0.0425 -0.763017,0 -0.346388,0 -0.688486,0.06 -1.033264,0.0875 -0.355504,0.05 -0.719586,0.0575 -1.062756,0.184997 -0.301347,0.1025 -0.601621,0.209996 -0.89546,0.337744 -0.298129,0.134997 -0.620924,0.167497 -0.92656,0.277244 -0.417166,0.162497 -0.884736,0.11 -1.2767,0.365244 0.03324,0.025 0.100269,0.0575 0.133514,0.0775 0.01072,0.147497 0.03914,0.290994 0.08633,0.429243 -0.410196,0.174996 -0.80645,0.388242 -1.205921,0.591489 -0.368372,0.182496 -0.779641,0.247496 -1.120666,0.502491 -0.235394,0.179996 -0.527088,0.229996 -0.759264,0.419493 -0.194106,0.159997 -0.390357,0.332992 -0.526552,0.562739 0.08526,0.0325 0.170513,0.065 0.256842,0.095 0.08955,0.197495 0.241828,0.371742 0.445048,0.388242 0.672935,0.134997 1.23863,-0.436742 1.884755,-0.525241 -0.168903,0.125 -0.323866,0.272746 -0.47722,0.421993 -0.342098,0.304244 -0.723875,0.600739 -0.915836,1.06223 0.04611,5e-4 0.138876,0 0.18499,0 0.101879,0.184997 0.264348,0.328745 0.457382,0.358744 0.320113,0.0575 0.625213,-0.112499 0.891706,-0.297244 -0.198931,0.296744 -0.388747,0.604989 -0.53245,0.942233 -0.192496,0.55099 -0.608591,0.986482 -0.660602,1.603221 0.174266,-0.157497 0.301882,0.08 0.467033,0.115 0.259522,0.05 0.537812,-0.0425 0.721194,-0.262995 0.299201,-0.348244 0.5169,-0.775736 0.710469,-1.207478 0.06863,-0.139998 0.126008,-0.304745 0.259523,-0.377243 0.567303,-0.329994 0.871331,-1.014732 1.360884,-1.453475 0.195178,-0.147497 0.44076,-0.164997 0.643445,-0.296494 0.295448,-0.189997 0.53513,-0.469491 0.796262,-0.712737 0.358183,0.394993 0.853636,0.608739 1.348552,0.616739 0.262739,-5e-4 0.504031,0.127497 0.7598,0.177497 0.182846,0.0475 0.383385,0.07 0.535668,0.209996 0.162469,0.142498 0.30081,0.316245 0.446121,0.480992 0.394645,0.405242 0.694383,0.916982 0.967311,1.433723 -0.435397,0.757237 -0.927633,1.481473 -1.515848,2.091463 -0.267028,0.351244 -0.601084,0.629738 -0.840766,1.009232 -0.296521,0.425742 -0.51422,0.919483 -0.634865,1.445973 -0.08043,0.429242 0.284188,0.842235 0.65524,0.773236 0.994121,-0.270745 1.838106,-1.06023 2.387715,-2.029463 0.24987,-0.385743 0.530841,-0.745736 0.837013,-1.073731 0.195715,-0.214996 0.467034,-0.317494 0.652559,-0.54599 0.258987,-0.401742 0.649343,-0.645738 0.960342,-0.987732 0.400007,-0.392493 0.646661,-0.935483 0.990904,-1.383975 0.290086,-0.383993 0.61717,-0.728986 0.904575,-1.11548 0.230031,-0.289994 0.522262,-0.57674 0.886345,-0.55524 0.485263,0.045 0.958195,0.194997 1.435416,0.302744 0.67079,0.177497 1.30941,0.477992 1.948028,0.766737 1.387158,0.590739 2.729275,1.310226 4.049945,2.072462 1.031657,0.57974 2.072961,1.13698 3.105684,1.714969 0.904583,0.506241 1.837036,0.941734 2.773249,1.364976 2.251517,1.042231 4.601695,1.765217 6.943303,2.488205 1.126563,0.368743 2.284757,0.58349 3.438671,0.805985 -0.0252,0.147497 -0.0794,0.306494 -0.0279,0.456493 0.0611,0.194995 0.20912,0.327244 0.335121,0.467991 0.12011,0.129997 0.22092,0.286744 0.360871,0.392992 0.200541,0.129999 0.449871,0.055 0.655242,0.169997 0.165681,0.0875 0.321181,0.202497 0.487942,0.289246 0.341021,0.194995 0.732992,0.202495 1.088493,0.350742 0.380171,0.154997 0.762483,0.303996 1.156594,0.407243 0.589822,0.149998 1.152294,0.410993 1.744806,0.549241 0.294371,0.06 0.569981,-0.105 0.843982,-0.202497 0.920663,0.380244 1.843466,0.754736 2.770029,1.11548 2.212908,0.902984 4.488025,1.638221 6.605492,2.822449 0.870793,0.454492 1.603785,1.17573 2.311567,1.899216 0.393572,0.405993 0.864363,0.693487 1.298685,1.036981 0.23164,0.184997 0.499211,0.319994 0.685272,0.571239 0.360331,0.474243 0.856313,0.773987 1.356594,1.010982 0.277751,0.125 0.557112,0.321994 0.656312,0.663988 0.104561,0.345994 0.372122,0.55724 0.603232,0.786987 0.204831,0.189995 0.196251,0.520239 0.279891,0.784485 0.197331,0.607489 0.487412,1.168729 0.706183,1.766468 0.23111,0.699737 0.441301,1.407975 0.670252,2.109462 0.14532,0.419492 0.1791,0.873485 0.264891,1.311477 0.11099,0.706987 0.25148,1.407725 0.396791,2.106211 -0.0247,0.59824 0.180161,1.177479 0.507782,1.63697 0.21663,0.377244 0.469711,0.738988 0.811272,0.976734 0.0595,0.06 0.169441,0.0925 0.169441,0.202495 0.0456,0.477241 0.12708,0.948484 0.18982,1.423225 0.0751,0.497741 0.128151,1.001982 0.253621,1.488473 0.158181,0.587239 0.326011,1.171479 0.467572,1.764718 0.15389,0.916984 0.272391,1.841467 0.404301,2.76345 0.134581,1.229979 0.382311,2.444956 0.439682,3.685684 -0.006,0.568739 0.045,1.162729 -0.139411,1.704468 -0.0611,0.199997 -0.186601,0.360744 -0.289551,0.533991 -0.339951,0.56674 -0.701892,1.11598 -1.060613,1.66697 -0.168361,0.244996 -0.291691,0.53499 -0.507782,0.732737 -0.369981,0.356494 -0.615022,0.853235 -0.815563,1.349726 h -0.0188 c -0.22789,0.374743 -0.450951,0.752986 -0.656852,1.144979 -0.14102,0.279494 -0.369981,0.483991 -0.505101,0.768986 -0.286871,0.56449 -0.542632,1.14873 -0.794113,1.734719 -0.292231,0.730987 -0.634332,1.450223 -1.126034,2.032713 -0.294371,0.340744 -0.580702,0.693488 -0.911003,0.989982 -0.625222,0.555989 -1.272414,1.07823 -1.914246,1.607721 -0.972673,0.907229 -1.938916,1.825469 -2.891209,2.760949 -1.872966,1.84772 -3.537872,3.95468 -5.080537,6.16289 -1.150694,1.59347 -2.364658,3.13344 -3.401671,4.82991 -0.727092,1.23048 -1.461155,2.45596 -2.209157,3.67019 -0.394111,0.59598 -0.779103,1.19897 -1.151764,1.81271 -0.622002,0.94299 -1.208074,1.91722 -1.875106,2.81995 -0.347461,0.46749 -0.666502,0.96073 -1.004843,1.43623 -0.408592,0.51599 -0.827903,1.02098 -1.235954,1.53822 -0.582312,0.70624 -1.095464,1.48347 -1.689036,2.17821 -0.725482,0.90348 -1.486365,1.76772 -2.256347,2.6202 -0.402151,0.50749 -0.793043,1.02648 -1.193054,1.53647 -0.263811,0.38125 -0.508322,0.78499 -0.685802,1.22973 -0.130301,0.33275 -0.319581,0.62899 -0.448802,0.96299 -0.10135,0.25999 -0.240221,0.51598 -0.233251,0.81273 -0.0772,0.63324 0,1.27097 0.0129,1.90671 0.008,0.39 0.0911,0.77399 0.0708,1.16648 -0.0231,0.61674 -0.0552,1.23773 0.005,1.85372 0.0879,0.36199 0.14799,0.74774 0.341021,1.06148 0.15175,0.25424 0.250951,0.56199 0.473471,0.75249 0.220911,0.19749 0.422532,0.43499 0.684733,0.56524 0.265421,0.14 0.515831,0.31999 0.795722,0.41999 0.525482,0.1575 1.046134,0.34599 1.589305,0.40424 1.017184,0.2125 2.031147,-0.1225 3.00703,-0.42249 0.564622,-0.12999 1.092254,-0.40174 1.626846,-0.63899 0.484191,-0.33774 0.934063,-0.73949 1.416654,-1.08298 0.250401,-0.16749 0.508852,-0.31999 0.769983,-0.46624 0.641307,-0.337 1.354989,-0.42375 2.008091,-0.72174 0.529762,-0.2225 1.076694,-0.39174 1.602705,-0.62774 0.425752,-0.19999 0.898683,-0.21999 1.316385,-0.44724 0.339951,-0.1775 0.699742,-0.29525 1.044523,-0.45799 0.264351,-0.1225 0.555512,-0.15 0.817173,-0.282 0.968923,-0.58123 2.030066,-0.92148 3.09122,-1.20273 1.298144,-0.38224 2.647768,-0.40474 3.962003,-0.68323 0.531381,-0.0875 1.075083,-0.264 1.609685,-0.1 0.297051,0.09 0.615022,0 0.904573,0.125 0.314751,0.12249 0.659532,0.11999 0.981793,0.035 0.305631,-0.0775 0.620922,-0.0525 0.930313,-0.095 0.295981,-0.055 0.566762,-0.21499 0.807523,-0.41399 0.14263,-0.1275 0.331901,-0.1225 0.500811,-0.16 0.478292,-0.0775 0.937823,-0.253 1.407535,-0.37475 0.403221,-0.105 0.789293,-0.27574 1.180184,-0.42749 0.562472,-0.22999 1.136214,-0.42374 1.692255,-0.67573 0.531912,-0.22 1.046134,-0.4955 1.576975,-0.72174 0.235391,-0.1125 0.495992,-0.0925 0.743183,-0.1525 0.345311,-0.035 0.670782,-0.1925 1.017173,-0.21999 0.324401,-0.03 0.639692,-0.1925 0.969993,-0.13 0.143171,0 0.245041,0.12 0.351211,0.21249 0.189281,0.185 0.428432,0.28675 0.664893,0.366 0.287941,0 0.580172,0.025 0.864902,-0.0425 0.317431,-0.07 0.646123,0 0.962484,-0.095 0.385531,-0.0975 0.772662,-0.1875 1.156593,-0.2925 0.0306,0.69124 0.128681,1.37847 0.110451,2.07272 -0.005,0.26524 0.0273,0.53074 0.0161,0.79774 -0.0965,2.68194 -0.223601,5.36264 -0.283121,8.04635 -0.0263,1.59572 -0.10295,3.19294 -0.0531,4.78941 -0.003,1.64072 0.0692,3.28318 0.250941,4.91215 0.14853,1.45772 0.346391,2.90795 0.548541,4.35693 0.312601,2.1942 0.231641,4.43492 0.001,6.63463 -0.16998,1.63647 -0.351751,3.27219 -0.459531,4.91666 -0.221981,3.19094 -0.0488,6.39113 -0.0198,9.58532 -0.0123,1.49398 0.0756,2.9867 0.0718,4.48117 -0.0172,0.81999 -0.0558,1.63997 -0.0912,2.46071 -0.059,1.39422 -0.0263,2.7967 -0.188201,4.18367 -0.0391,0.39124 -0.15336,0.76724 -0.196791,1.15924 -0.0284,0.25223 0.117431,0.45873 0.184991,0.68598 0.0354,0.28924 -0.0928,0.55849 -0.11957,0.84274 -0.0536,0.39198 0.0681,0.77898 0.0483,1.17272 -0.0257,0.3715 -0.0681,0.74198 -0.0981,1.11423 -0.0188,0.2125 0.0729,0.40974 0.105091,0.61674 -0.124391,0.66023 -0.176411,1.34023 -0.164611,2.01722 -0.0123,0.37273 0.102421,0.72973 0.131371,1.09947 0.0198,0.2875 0.0815,0.5755 0.0633,0.86623 -0.132981,0.6775 -0.314211,1.34449 -0.392501,2.03547 -0.0783,0.39025 -0.0332,0.79199 -0.0724,1.18799 -0.12707,1.46947 0.0461,2.95769 -0.16193,4.42041 -0.188741,1.42122 -0.608592,2.7807 -0.953903,4.15792 -0.282041,1.09074 -0.751763,2.09947 -1.103504,3.16019 -0.10885,0.025 -0.234321,0 -0.319581,0.09 -0.195711,0.1625 -0.374271,0.39275 -0.380171,0.685 0.008,0.23499 0.0579,0.50374 0.262741,0.61674 -0.171581,0.69298 -0.406982,1.42947 -0.215551,2.1512 0.0654,0.32725 0.267031,0.58299 0.458992,0.82549 0.305631,0.3495 0.738882,0.47125 1.139433,0.61123 0.623602,0.2225 1.269724,0.3415 1.905126,0.5135 0.583392,0.1475 1.159814,0.33299 1.737296,0.51224 0.745863,0.2325 1.469205,0.56025 2.231147,0.72498 0.150671,0.0325 0.316361,0.0525 0.460062,-0.025 0.13352,-0.0975 0.14638,-0.29848 0.197321,-0.45273 0.10188,-0.32125 0.1984,-0.64424 0.306711,-0.96174 0.334051,-0.115 0.632182,-0.48223 0.602691,-0.90048 -0.0129,-0.1525 0.015,-0.29999 0.0536,-0.44249 0.0654,-0.2175 -0.0397,-0.43425 -0.0381,-0.64975 0.0375,-0.19248 0.11153,-0.37423 0.12815,-0.56998 -0.0209,-0.1625 -0.10992,-0.32324 -0.0488,-0.48599 0.13459,-0.535 0.18284,-1.08973 0.283111,-1.63272 0.074,-0.41575 0.0333,-0.83973 0.0182,-1.25798 0.006,-0.20999 -0.111531,-0.38274 -0.184981,-0.56274 0.0799,-0.36225 0.171041,-0.72473 0.174261,-1.10073 0.270781,-0.26099 0.15496,-0.69524 0.21073,-1.04224 0.0595,-0.39998 0.0853,-0.80598 0.172121,-1.19922 0.0713,-0.318 0.0349,-0.64798 -0.002,-0.96673 -0.0933,-0.06 -0.185521,-0.12 -0.277211,-0.1775 -0.045,-1.24822 -0.0815,-2.49946 -0.209661,-3.74093 -0.045,-0.48898 -0.11474,-0.97348 -0.163,-1.46072 -0.0129,-0.455 0.0129,-0.91273 -0.0466,-1.36348 -0.0306,-0.36749 -0.141021,-0.71999 -0.149071,-1.08922 -0.022,-0.52525 -0.0118,-1.05274 -0.0869,-1.57197 -0.0198,-0.195 -0.0724,-0.38575 -0.0681,-0.578 0.18821,-0.51524 0.400541,-1.06997 0.313141,-1.63997 -0.0472,-0.43124 -0.0949,-0.86374 -0.0885,-1.29722 0.074,-0.06 0.183921,-0.09 0.214481,-0.1975 0.052,-0.1875 0.0949,-0.3785 0.152821,-0.56324 0.0997,-0.50425 0.0375,-1.04798 0.22788,-1.52773 0.0885,-0.21499 0.182851,-0.43424 0.192501,-0.67449 0.0322,-0.59698 0.037,-1.19597 0.11904,-1.78747 0.193031,-1.62222 0.395182,-3.24319 0.603762,-4.86316 0.0488,-0.52573 0.228421,-1.01722 0.352292,-1.52197 0.573191,-2.06895 1.233801,-4.10767 1.719591,-6.20713 0.31904,-1.34098 0.585,-2.69795 0.81825,-4.06143 0.5244,-3.1317 0.82844,-6.32639 0.71745,-9.51758 -0.0949,-3.12894 -0.69922,-6.20563 -0.78072,-9.33533 0.008,-0.77899 -0.0182,-1.55772 0.022,-2.33496 0.0665,-1.51772 0.18821,-3.03193 0.34478,-4.54115 0.074,-0.69899 0.10724,-1.40299 0.19142,-2.10072 0.16998,-1.56447 0.41664,-3.11669 0.6901,-4.66091 0.22038,-1.26674 0.51047,-2.51621 0.70618,-3.78819 0.18446,-1.27147 0.51154,-2.50696 0.73942,-3.76793 0.27561,-1.42022 0.50511,-2.85145 0.80806,-4.26417 0.11314,-0.73774 0.24183,-1.47498 0.33246,-2.21496 0.13297,-0.55474 0.18927,-1.12898 0.3008,-1.68872 0.41449,-2.22796 0.71905,-4.48342 0.87294,-6.75488 0.13405,-1.73547 0.13191,-3.47919 0.15335,-5.21891 -0.0209,-0.98398 -0.0472,-1.97296 -0.20214,-2.94344 -0.12655,-0.81874 -0.20751,-1.64697 -0.36194,-2.45946 -0.17266,-0.95398 -0.22038,-1.92771 -0.31689,-2.8927 -0.0917,-0.98223 -0.009,-1.96796 0.0263,-2.95019 0.002,-0.4085 -0.0139,-0.81699 0.0188,-1.22373 0.0456,-0.63374 0.0365,-1.269477 0.0354,-1.904215 0.0129,-0.903484 0.0708,-1.809467 0.0177,-2.711952 -0.12172,-0.409493 -0.3748,-0.773235 -0.40322,-1.216728 -0.0799,-0.784985 -0.21825,-1.559721 -0.32817,-2.338458 -0.10563,-0.756736 -0.2059,-1.514222 -0.33352,-2.265958 -0.13244,-0.794236 -0.24236,-1.594722 -0.27614,-2.402457 -0.0472,-0.714988 0.0338,-1.428724 0.0622,-2.141961 0.0525,-1.15098 0.12279,-2.300459 0.19732,-3.449688 0.13298,-1.571972 0.12226,-3.153693 0.20966,-4.728415 0.0574,-1.165979 0.0504,-2.332958 0.052,-3.499437 0.0316,-0.487241 0.0284,-1.001981 0.21394,-1.452223 0.1287,-0.1225 0.296,-0.192497 0.39144,-0.358744 0.30188,-0.467991 0.55926,-0.973482 0.77588,-1.499473 0.25363,-0.611738 0.51261,-1.236478 0.61503,-1.908466 0.0231,-0.495741 0.22895,-0.941732 0.34531,-1.412224 0.3866,-1.442724 0.70082,-2.918947 0.83111,-4.42317 0.0853,-1.08848 0.0493,-2.187961 -0.0879,-3.268441 0.10295,-0.949232 0.27669,-1.923965 0.0681,-2.872448 -0.0874,-0.305744 0.005,-0.616739 0.0606,-0.916983 0.11153,-0.58549 0.27938,-1.15423 0.37696,-1.743219 0.0847,-0.646988 0.0236,-1.302976 0.0906,-1.951464 0.0863,-0.903734 0.10563,-1.825717 0.34371,-2.699702 0.16997,-0.697237 0.19732,-1.429475 0.14853,-2.147461 -0.0611,-0.780735 -0.0107,-1.563472 0.008,-2.343958 -0.006,-0.675237 0.0145,-1.350225 -0.0188,-2.024713 -0.0284,-0.716238 -0.0735,-1.431225 -0.0917,-2.147461 -0.0215,-0.738237 -0.14531,-1.476723 -0.0643,-2.21571 0.0209,-0.284245 0.0724,-0.568241 0.0568,-0.853735 -0.0209,-0.674488 -0.0139,-1.349476 0.0365,-2.022214 0.0525,-0.970482 0.12011,-1.940964 0.22091,-2.906697 0.18553,-0.684237 0.40483,-1.358725 0.64023,-2.022713 0.3689,-1.13073 0.711,-2.27346 1.0279,-3.424439 0.16354,-0.085 0.33566,-0.179997 0.45041,-0.344744 0.23272,-0.563739 0.32548,-1.183479 0.47937,-1.778217 0.16944,-0.658988 0.26596,-1.338976 0.43003,-1.999964 0.096,-0.385744 0.14263,-0.783736 0.2043,-1.177479 0.0381,-0.266745 0.14638,-0.516741 0.14906,-0.789985 0,-0.308995 0.0311,-0.638239 -0.096,-0.923233 -0.0906,-0.244996 -0.24933,-0.440993 -0.4236,-0.60949 0.0917,-0.638738 0.19464,-1.275727 0.26757,-1.918215 0.0633,-0.714487 0.13619,-1.432975 0.32493,-2.120962 0.19143,-0.685488 0.52763,-1.311476 0.65578,-2.020964 0.17855,-0.770986 0.19947,-1.573221 0.29384,-2.359456 0.0842,-0.499241 0.15067,-1.001732 0.23164,-1.501723 0.16139,-0.673238 0.20911,-1.372226 0.33083,-2.054713 0.074,-0.84149 0.17266,-1.681225 0.18768,-2.52771 0.0633,-0.794235 0.059,-1.59147 0.0869,-2.387705 0.11474,-3.078691 -0.16463,-6.151132 -0.40377,-9.213835 -0.12172,-1.654971 -0.23432,-3.320191 -0.11582,-4.979161 0.0434,-0.616735 0.0343,-1.238971 0.12601,-1.850219 z m -34.982988,40.72977 v 0 m 3.17808,-6.424133 c 0.0337,-0.207497 0.0638,-0.416992 0.106701,-0.622739 -0.0429,0.204997 -0.073,0.414742 -0.106701,0.622739 z m 0.112921,-0.634989 c 0.007,-0.025 0.0158,-0.0325 0.0206,-0.0425 -0.005,0 -0.0136,0.0275 -0.0206,0.0425 z m 8.062576,93.255065 c 0.12868,0.15 0.002,0.29724 -0.0568,0.44649 -0.0783,1.21698 0.10402,2.43446 0.0643,3.65319 0.0311,0.41024 0.0295,0.82123 -0.006,1.23222 0.0204,0.70499 0.0161,1.41198 0.0161,2.11922 -0.599472,0.075 -1.125494,0.45749 -1.709955,0.60674 -0.453092,0.22999 -0.892243,0.49823 -1.339435,0.74398 -0.252011,0.16 -0.538352,0.045 -0.805372,0.025 -0.878843,-0.1075 -1.755536,-0.24249 -2.635449,-0.33424 -0.230031,-0.035 -0.409121,0.1575 -0.568912,0.31574 0.139951,0.28575 0.294911,0.56224 0.468642,0.82324 -0.261131,-0.115 -0.536732,-0.175 -0.810733,-0.23 -0.424671,0.025 -0.830583,0.215 -1.174294,0.49249 -0.411801,0.312 -0.763552,0.71699 -1.098143,1.13023 -0.308311,0.349 -0.613412,0.70149 -0.914223,1.05773 -0.495992,0.39574 -1.079374,0.61249 -1.613976,0.92824 -0.21984,-0.0775 -0.442901,-0.15 -0.672392,-0.17 -0.425211,-0.025 -0.852573,-0.1325 -1.276704,-0.0375 -0.327081,0.05 -0.637012,0.2225 -0.972673,0.1925 -1.157124,0.045 -2.262247,-0.4095 -3.349661,-0.80224 -0.231641,-0.085 -0.460062,-0.1825 -0.689022,-0.27374 0.932993,-0.61499 1.880996,-1.19923 2.839199,-1.76047 0.866503,-0.50199 1.742116,-0.98348 2.600048,-1.50448 0.928703,-0.54224 1.808076,-1.18722 2.680479,-1.83846 0.404831,-0.39625 0.756583,-0.86124 1.193054,-1.21498 0.436471,-0.35449 0.796803,-0.80774 1.196274,-1.21123 0.364611,-0.39749 0.774812,-0.74773 1.055783,-1.23348 0.298131,-0.51599 0.729233,-0.89798 1.149084,-1.27522 0.387141,-0.33775 0.763553,-0.69174 1.144254,-1.03823 0.228421,-0.2 0.464351,-0.39725 0.739422,-0.50349 0.212881,-0.08 0.363011,-0.284 0.564622,-0.38775 0.201621,-0.1025 0.370521,-0.26774 0.551762,-0.40899 0.225741,-0.1825 0.468641,-0.33474 0.707782,-0.49274 0.338881,0.0725 0.637552,0.29374 0.979113,0.35199 0.615022,0.09 1.234874,0.22 1.809686,0.49324 0.125471,0.04 -0.0172,0.07 -0.066,0.1075 z"
     id="path2"
     inkscape:connector-curvature="0"
     style="stroke-width:0.05739061" /></svg>